# xmcd
#
# Track frame offsets:
#	150
#	12705
#	26467
#	39812
#	54445
#	67040
#	79972
#	94235
#	108290
#	120602
#	133105
#	145537
#	157865
#	171085
#	181602
#	194875
#	207900
#	221897
#	234542
#	247507
#
# Disc length: 3443 seconds
# Revision: 8
# Processed by: cddbd v1.5.2PL0 Copyright (c) Steve Scherf et al.
# Submitted via: dBpowerAMP V12.0
#
DISCID=100d7114
DTITLE=Little Walter - His Best
DYEAR=1997
DGENRE=Jazz
TTITLE0=Juke
TTITLE1=Can't Hold Out Much Longer
TTITLE2=Mean Old World
TTITLE3=Sad Hours
TTITLE4=Tell Me Mama
TTITLE5=Off The Wall
TTITLE6=Blues With A Feeling
TTITLE7=You're So Fine
TTITLE8=Too Late
TTITLE9=Last Night
TTITLE10=Mellow Down Easy
TTITLE11=My Babe
TTITLE12=Roller Coaster
TTITLE13=Hate To See You Go
TTITLE14=It Ain't Right
TTITLE15=Boom, Boom Out Goes The Light
TTITLE16=Confessin' The Blues
TTITLE17=Key To The Highway
TTITLE18=Everything's Gonna Be Alright
TTITLE19=Just Your Fool
EXTD=
EXTT0=
EXTT1=
EXTT2=
EXTT3=
EXTT4=
EXTT5=
EXTT6=
EXTT7=
EXTT8=
EXTT9=
EXTT10=
EXTT11=
EXTT12=
EXTT13=
EXTT14=
EXTT15=
EXTT16=
EXTT17=
EXTT18=
EXTT19=
PLAYORDER=
